<svg width="1024" height="420" viewBox="0 0 1024 420" xmlns="http://www.w3.org/2000/svg">
  <path d="M190.002 146C218.603 146 243.504 136.5 250.504 117C251.804 113.4 252.504 109.5 252.504 105.3C252.504 102.2 252.004 99.2 251.004 96.5C246.404 83.6 230.604 76 203.603 76H127.6L114 146H190.002ZM172.102 98H189.302C196.103 98 200.603 100.6 202.203 104.9C202.503 105.8 202.703 107.2 202.703 108.4C202.703 110.1 202.403 111.9 201.903 113.4C199.603 119.6 192.703 124 184.302 124H167.102L172.102 98Z" fill="black"/>
  <path d="M359.407 146L363.307 126H308.405L309.505 120.5H362.807L366.407 101.5H313.106L314.206 96H369.107L373.008 76H269.304L255.704 146H359.407Z" fill="black"/>
  <path d="M422.185 146L426.785 122.5H480.087L483.787 103.5H430.485L431.885 96H486.787L490.687 76H386.984L373.383 146H422.185Z" fill="black"/>
  <path d="M538.4 146L552 76H503.198L489.598 146H538.4Z" fill="black"/>
  <path d="M242.766 344L352.242 248.24L366.166 176H113.843L104 226.4H249.728V232.88L112.883 344H242.766Z" fill="black"/>
  <path d="M511.683 344L621.159 248.24L635.083 176H382.76L372.917 226.4H518.645V232.88L381.8 344H511.683Z" fill="black"/>
  <path d="M780.599 344L890.075 248.24L904 176H651.677L641.834 226.4H787.562V232.88L650.716 344H780.599Z" fill="black"/>
  <path d="M568.019 76L920 78L905.041 146H554L568.019 76Z" fill="black"/>
</svg>
