<?xml version="1.0" encoding="utf-8"?>
<svg version="1.1" xmlns="http://www.w3.org/2000/svg" viewBox="60.8 124.7 500 240">
<style type="text/css">
	.st0{fill:#FFFFFF;}
</style>
<g>
	<polygon class="st0" points="80.1,338.5 157.6,275.5 82.5,275.5 89.6,239.5 233.7,239.5 224.9,285.1 163.9,338.5 	"/>
	<path d="M228.3,244l-7.4,38.7L162.2,334H92.8l73.2-59.5V271H88l5.3-27H228.3 M239.2,235h-10.9h-135h-7.4l-1.4,7.3l-5.3,27L77.1,280
		H88h56.9l-57.8,47l-19.7,16h25.3h69.5h3.4l2.5-2.2l58.6-51.3l2.3-2l0.6-3l7.5-38.7L239.2,235L239.2,235z"/>
</g>
<g>
	<polygon class="st0" points="224,338.5 301.4,275.5 226.4,275.5 233.4,239.5 377.6,239.5 368.8,285.1 307.8,338.5 	"/>
	<path d="M372.1,244l-7.5,38.7L306.1,334h-69.5l73.2-59.5V271h-78l5.3-27H372.1 M383,235h-10.9h-135h-7.4l-1.4,7.3l-5.3,27
		l-2.1,10.7h10.9h56.9l-57.8,47l-19.7,16h25.3h69.5h3.4l2.5-2.2l58.6-51.3l2.3-2l0.6-3l7.4-38.7L383,235L383,235z"/>
</g>
<g>
	<polygon class="st0" points="367.8,338.5 445.3,275.5 370.3,275.5 377.3,239.5 521.4,239.5 512.7,285.1 451.7,338.5 	"/>
	<path d="M516,244l-7.5,38.7L450,334h-69.5l73.2-59.5V271h-78l5.3-27H516 M526.9,235H516H381h-7.4l-1.4,7.3l-5.3,27l-2.1,10.7h10.9
		h56.9l-57.8,47l-19.7,16h25.3H450h3.4l2.5-2.2l58.6-51.3l2.3-2l0.6-3l7.5-38.7L526.9,235L526.9,235z"/>
</g>
<g>
	<polygon class="st0" points="89.9,228.4 108.7,149.4 537,151.5 522.2,228.4 	"/>
	<path d="M112.3,153.9l419.3,2l-13.1,68H95.6L112.3,153.9 M105.2,144.9l-1.7,6.9l-16.7,70l-2.6,11.1h11.4h422.9h7.4l1.4-7.3l13.1-68
		l2.1-10.7l-10.8-0.1l-419.3-2L105.2,144.9L105.2,144.9z"/>
</g>
</svg>
